<svg width="1189" height="307" viewBox="0 0 1189 307" fill="none" xmlns="http://www.w3.org/2000/svg">
<path d="M21.2899 149.512V45.531C127.538 3.80906 228.604 28.1468 265.855 45.531V149.512C265.855 162.469 258.729 178.665 255.166 185.144C227.178 236.972 169.001 272.604 143.411 283.942C91.2584 270.013 42.2457 204.903 30.8375 185.144C21.711 169.336 20.6697 154.803 21.2899 149.512Z" fill="#C2272A"/>
<path d="M0.170545 148.874V27.0008C124.78 -21.9003 243.311 6.62537 287 27.0008V148.874C287 164.061 278.642 183.044 274.463 190.637C241.639 251.384 173.408 293.147 143.395 306.436C82.2304 290.11 24.7478 213.797 11.3681 190.637C0.664315 172.11 -0.556844 155.075 0.170545 148.874Z" fill="#C2272A"/>
<path d="M14.4056 149.306V39.5425C126.638 -4.49953 233.396 21.1916 272.746 39.5425V149.306C272.746 162.983 265.219 180.08 261.455 186.919C231.891 241.63 170.437 279.243 143.405 291.211C88.315 276.508 36.5417 207.777 24.4909 186.919C14.8503 170.232 13.7504 154.891 14.4056 149.306Z" fill="#373736"/>
<path d="M49.7949 71.4446C54.2219 64.9661 67.4814 55.7017 85.103 70.4728C78.3006 67.0176 61.7155 62.3746 49.7949 71.4446Z" fill="#C2272A"/>
<path d="M30.0352 159.877V76.9516L238.645 76.3037H258.08V158.905C258.08 167.457 255.489 170.891 254.193 171.538L142.438 258.999C113.109 234.488 52.0941 184.107 42.6683 178.665C33.2425 173.223 30.3188 167.975 30.0352 166.032V159.877Z" fill="#C2272A"/>
<path d="M34.2461 166.032V79.543H98.3838V100.274H56.2732V127.16H88.342V149.835H56.2732V184.172L34.2461 166.032Z" fill="#C0C0C0"/>
<path d="M103.568 133.639V79.543H169.326V107.077L148.27 121.654V100.274H125.919V124.569L169.326 163.44V233.409L142.764 254.464L103.892 222.071V188.059L125.919 171.215V211.382L142.764 225.634L148.27 221.099V173.482L103.568 133.639Z" fill="#C0C0C0"/>
<path d="M176.127 79.2197V227.903L198.154 210.734V130.4L215.322 169.92L232.166 130.4V183.524L253.87 166.032V79.2197H235.082L215.322 122.95L195.563 79.2197H176.127Z" fill="#C0C0C0"/>
<path d="M39.7531 54.6006C35.8659 61.3383 38.1334 65.6141 39.7531 66.9098C38.9757 59.3947 43.5322 55.5724 45.9077 54.6006C124.428 61.3383 186.6 60.4313 207.872 59.1356C203.207 60.6904 200.745 67.7736 200.097 71.1209C218.237 51.1669 234.002 64.1025 239.617 73.0645C240.394 69.4365 238.645 67.4497 237.673 66.9098C246.743 67.6873 249.442 65.5061 249.658 64.3184C240.329 65.355 235.189 61.727 233.786 59.7834C237.673 59.5243 248.579 62.2669 253.545 63.6706C243.698 54.8597 213.81 52.0092 200.097 51.6852C155.071 26.0949 114.256 28.3624 82.5115 40.0238C57.1156 49.3529 38.4574 48.014 32.3027 46.1785C32.5619 49.2882 37.3776 53.0889 39.7531 54.6006Z" fill="#C2272A"/>
<path d="M90.6992 45.065C109.811 37.1828 156.521 27.4434 190.469 51.5436C168.658 53.1632 118.168 54.135 90.6992 45.065Z" fill="#373736"/>
<path d="M1088.98 162.718V52.8545H1127.8C1137.13 52.8545 1145.19 54.3926 1151.97 57.4688C1158.81 60.5449 1164.06 64.915 1167.72 70.5791C1171.43 76.2432 1173.29 82.9814 1173.29 90.7939C1173.29 98.6064 1171.43 105.369 1167.72 111.082C1164.06 116.795 1158.86 121.214 1152.12 124.339C1145.38 127.415 1137.37 128.953 1128.1 128.953H1114.77V162.718H1088.98ZM1114.77 106.468H1125.31C1132.29 106.468 1137.64 105.125 1141.35 102.439C1145.06 99.7051 1146.92 95.8232 1146.92 90.7939C1146.92 85.8623 1145.04 82.0537 1141.28 79.3682C1137.57 76.6826 1132.25 75.3398 1125.31 75.3398H1114.77V106.468Z" fill="white"/>
<path d="M1018.16 164.915C1009.76 164.915 1002.02 163.499 994.941 160.667C987.91 157.786 981.782 153.782 976.558 148.655C971.333 143.479 967.28 137.425 964.399 130.491C961.519 123.558 960.078 115.989 960.078 107.786C960.078 99.583 961.519 92.0146 964.399 85.0811C967.28 78.1475 971.309 72.1172 976.484 66.9902C981.709 61.8145 987.861 57.8105 994.941 54.9785C1002.02 52.0977 1009.76 50.6572 1018.16 50.6572C1026.56 50.6572 1034.27 52.0977 1041.3 54.9785C1048.38 57.8105 1054.51 61.8145 1059.69 66.9902C1064.86 72.1172 1068.89 78.1475 1071.77 85.0811C1074.65 92.0146 1076.09 99.583 1076.09 107.786C1076.09 115.989 1074.65 123.558 1071.77 130.491C1068.89 137.425 1064.86 143.479 1059.69 148.655C1054.51 153.782 1048.38 157.786 1041.3 160.667C1034.27 163.499 1026.56 164.915 1018.16 164.915ZM1018.16 142.43C1022.65 142.43 1026.8 141.551 1030.61 139.793C1034.47 138.035 1037.81 135.594 1040.64 132.469C1043.53 129.295 1045.75 125.608 1047.31 121.409C1048.92 117.21 1049.73 112.669 1049.73 107.786C1049.73 102.903 1048.92 98.3623 1047.31 94.1631C1045.75 89.9639 1043.55 86.2773 1040.72 83.1035C1037.89 79.9297 1034.54 77.4883 1030.68 75.7793C1026.83 74.0215 1022.65 73.1426 1018.16 73.1426C1013.67 73.1426 1009.47 74.0215 1005.56 75.7793C1001.7 77.4883 998.335 79.9297 995.454 83.1035C992.622 86.2773 990.4 89.9639 988.789 94.1631C987.227 98.3623 986.445 102.903 986.445 107.786C986.445 112.669 987.227 117.21 988.789 121.409C990.4 125.608 992.622 129.295 995.454 132.469C998.335 135.643 1001.7 138.108 1005.56 139.866C1009.47 141.575 1013.67 142.43 1018.16 142.43Z" fill="white"/>
<path d="M922.798 162.718H897.017V75.3398H865.596V52.8545H954.219V75.3398H922.798V162.718Z" fill="white"/>
<path d="M777.998 150.486L790.156 130.857C793.623 133.592 796.919 135.838 800.044 137.596C803.169 139.305 806.245 140.574 809.272 141.404C812.3 142.234 815.376 142.649 818.501 142.649C821.919 142.649 824.849 142.21 827.29 141.331C829.78 140.403 831.685 139.109 833.003 137.449C834.37 135.789 835.054 133.812 835.054 131.517C835.054 128.831 834.15 126.561 832.344 124.705C830.537 122.801 828.145 121.141 825.166 119.725C822.236 118.26 819.038 116.819 815.571 115.403C812.056 113.938 808.467 112.352 804.805 110.643C801.191 108.934 797.871 106.858 794.844 104.417C791.816 101.927 789.351 98.9238 787.446 95.4082C785.591 91.8926 784.663 87.6201 784.663 82.5908C784.663 75.9502 786.323 70.2617 789.644 65.5254C793.013 60.7402 797.603 57.0781 803.413 54.5391C809.272 51.9512 815.889 50.6572 823.262 50.6572C828.633 50.6572 834.224 51.3652 840.034 52.7812C845.894 54.1973 851.777 56.3945 857.686 59.373L847.651 80.1006C844.136 77.9521 840.327 76.2676 836.226 75.0469C832.173 73.7773 828.389 73.1426 824.873 73.1426C822.09 73.1426 819.648 73.5576 817.549 74.3877C815.498 75.1689 813.887 76.292 812.715 77.7568C811.592 79.2217 811.03 80.9307 811.03 82.8838C811.03 85.374 811.909 87.5469 813.667 89.4023C815.474 91.209 817.817 92.8447 820.698 94.3096C823.579 95.7744 826.704 97.2637 830.073 98.7773C833.638 100.291 837.251 101.976 840.913 103.831C844.624 105.687 848.018 107.884 851.094 110.423C854.219 112.913 856.709 115.916 858.564 119.432C860.469 122.947 861.421 127.171 861.421 132.103C861.421 138.597 859.663 144.334 856.147 149.314C852.681 154.246 847.798 158.079 841.499 160.813C835.249 163.548 827.974 164.915 819.673 164.915C812.007 164.915 804.634 163.694 797.554 161.253C790.522 158.763 784.004 155.174 777.998 150.486Z" fill="white"/>
<path d="M709.37 162.718H683.589V75.3398H652.168V52.8545H740.791V75.3398H709.37V162.718Z" fill="white"/>
<path d="M564.57 150.486L576.729 130.857C580.195 133.592 583.491 135.838 586.616 137.596C589.741 139.305 592.817 140.574 595.845 141.404C598.872 142.234 601.948 142.649 605.073 142.649C608.491 142.649 611.421 142.21 613.862 141.331C616.353 140.403 618.257 139.109 619.575 137.449C620.942 135.789 621.626 133.812 621.626 131.517C621.626 128.831 620.723 126.561 618.916 124.705C617.109 122.801 614.717 121.141 611.738 119.725C608.809 118.26 605.61 116.819 602.144 115.403C598.628 113.938 595.039 112.352 591.377 110.643C587.764 108.934 584.443 106.858 581.416 104.417C578.389 101.927 575.923 98.9238 574.019 95.4082C572.163 91.8926 571.235 87.6201 571.235 82.5908C571.235 75.9502 572.896 70.2617 576.216 65.5254C579.585 60.7402 584.175 57.0781 589.985 54.5391C595.845 51.9512 602.461 50.6572 609.834 50.6572C615.205 50.6572 620.796 51.3652 626.606 52.7812C632.466 54.1973 638.35 56.3945 644.258 59.373L634.224 80.1006C630.708 77.9521 626.899 76.2676 622.798 75.0469C618.745 73.7773 614.961 73.1426 611.445 73.1426C608.662 73.1426 606.221 73.5576 604.121 74.3877C602.07 75.1689 600.459 76.292 599.287 77.7568C598.164 79.2217 597.603 80.9307 597.603 82.8838C597.603 85.374 598.481 87.5469 600.239 89.4023C602.046 91.209 604.39 92.8447 607.271 94.3096C610.151 95.7744 613.276 97.2637 616.646 98.7773C620.21 100.291 623.823 101.976 627.485 103.831C631.196 105.687 634.59 107.884 637.666 110.423C640.791 112.913 643.281 115.916 645.137 119.432C647.041 122.947 647.993 127.171 647.993 132.103C647.993 138.597 646.235 144.334 642.72 149.314C639.253 154.246 634.37 158.079 628.071 160.813C621.821 163.548 614.546 164.915 606.245 164.915C598.579 164.915 591.206 163.694 584.126 161.253C577.095 158.763 570.576 155.174 564.57 150.486Z" fill="white"/>
<path d="M559.224 162.718H530.732L508.687 124.705H490.596V162.718H464.814V52.8545H510.298C519.478 52.8545 527.314 54.2705 533.809 57.1025C540.303 59.9346 545.259 64.0361 548.677 69.4072C552.144 74.7783 553.877 81.248 553.877 88.8164C553.877 96.1895 552.192 102.513 548.823 107.786C545.503 113.06 540.742 117.112 534.541 119.944L559.224 162.718ZM490.596 104.563H508.32C514.57 104.563 519.331 103.318 522.603 100.828C525.874 98.3379 527.51 94.7246 527.51 89.9883C527.51 85.2031 525.874 81.5654 522.603 79.0752C519.331 76.585 514.57 75.3398 508.32 75.3398H490.596V104.563Z" fill="white"/>
<path d="M422.773 162.718V52.8545H448.555V162.718H422.773Z" fill="white"/>
<path d="M337.666 162.718V52.8545H407.173V75.3398H363.447V96.3604H404.243V118.846H363.447V162.718H337.666Z" fill="white"/>
<path d="M1122.64 246.602L1128.72 236.788C1130.45 238.155 1132.1 239.278 1133.66 240.157C1135.22 241.011 1136.76 241.646 1138.28 242.061C1139.79 242.476 1141.33 242.684 1142.89 242.684C1144.6 242.684 1146.06 242.464 1147.28 242.024C1148.53 241.561 1149.48 240.914 1150.14 240.083C1150.82 239.253 1151.17 238.265 1151.17 237.117C1151.17 235.774 1150.71 234.639 1149.81 233.711C1148.91 232.759 1147.71 231.929 1146.22 231.221C1144.76 230.489 1143.16 229.769 1141.43 229.061C1139.67 228.328 1137.87 227.535 1136.04 226.68C1134.24 225.826 1132.58 224.788 1131.06 223.567C1129.55 222.322 1128.31 220.821 1127.36 219.063C1126.44 217.305 1125.97 215.169 1125.97 212.654C1125.97 209.334 1126.8 206.49 1128.46 204.122C1130.15 201.729 1132.44 199.898 1135.35 198.628C1138.28 197.334 1141.58 196.688 1145.27 196.688C1147.96 196.688 1150.75 197.042 1153.66 197.75C1156.59 198.458 1159.53 199.556 1162.48 201.045L1157.47 211.409C1155.71 210.335 1153.8 209.493 1151.75 208.882C1149.73 208.248 1147.83 207.93 1146.08 207.93C1144.68 207.93 1143.46 208.138 1142.41 208.553C1141.39 208.943 1140.58 209.505 1140 210.237C1139.44 210.97 1139.15 211.824 1139.15 212.801C1139.15 214.046 1139.59 215.132 1140.47 216.06C1141.38 216.963 1142.55 217.781 1143.99 218.514C1145.43 219.246 1146.99 219.991 1148.68 220.748C1150.46 221.504 1152.27 222.347 1154.1 223.274C1155.95 224.202 1157.65 225.301 1159.19 226.57C1160.75 227.815 1161.99 229.317 1162.92 231.075C1163.87 232.833 1164.35 234.944 1164.35 237.41C1164.35 240.657 1163.47 243.526 1161.71 246.016C1159.98 248.482 1157.54 250.398 1154.39 251.766C1151.26 253.133 1147.63 253.816 1143.48 253.816C1139.64 253.816 1135.96 253.206 1132.42 251.985C1128.9 250.74 1125.64 248.946 1122.64 246.602Z" fill="white"/>
<path d="M1022.47 252.718H1008.22L997.198 233.711H988.152V252.718H975.262V197.786H998.003C1002.59 197.786 1006.51 198.494 1009.76 199.91C1013.01 201.326 1015.48 203.377 1017.19 206.062C1018.93 208.748 1019.79 211.983 1019.79 215.767C1019.79 219.454 1018.95 222.615 1017.27 225.252C1015.61 227.889 1013.23 229.915 1010.12 231.331L1022.47 252.718ZM988.152 223.641H997.015C1000.14 223.641 1002.52 223.018 1004.16 221.773C1005.79 220.528 1006.61 218.721 1006.61 216.353C1006.61 213.96 1005.79 212.142 1004.16 210.896C1002.52 209.651 1000.14 209.029 997.015 209.029H988.152V223.641Z" fill="white"/>
<path d="M842.349 253.816C838.15 253.816 834.28 253.108 830.74 251.692C827.225 250.252 824.161 248.25 821.548 245.687C818.936 243.099 816.91 240.071 815.469 236.604C814.029 233.138 813.309 229.354 813.309 225.252C813.309 221.15 814.029 217.366 815.469 213.899C816.91 210.433 818.924 207.417 821.512 204.854C824.124 202.266 827.2 200.264 830.74 198.848C834.28 197.408 838.15 196.688 842.349 196.688C846.548 196.688 850.406 197.408 853.921 198.848C857.461 200.264 860.525 202.266 863.113 204.854C865.701 207.417 867.715 210.433 869.156 213.899C870.596 217.366 871.316 221.15 871.316 225.252C871.316 229.354 870.596 233.138 869.156 236.604C867.715 240.071 865.701 243.099 863.113 245.687C860.525 248.25 857.461 250.252 853.921 251.692C850.406 253.108 846.548 253.816 842.349 253.816ZM842.349 242.574C844.595 242.574 846.67 242.134 848.575 241.255C850.503 240.376 852.176 239.156 853.592 237.593C855.032 236.006 856.143 234.163 856.924 232.063C857.73 229.964 858.133 227.693 858.133 225.252C858.133 222.811 857.73 220.54 856.924 218.44C856.143 216.341 855.044 214.498 853.628 212.911C852.212 211.324 850.54 210.103 848.611 209.249C846.683 208.37 844.595 207.93 842.349 207.93C840.103 207.93 838.003 208.37 836.05 209.249C834.122 210.103 832.437 211.324 830.997 212.911C829.581 214.498 828.47 216.341 827.664 218.44C826.883 220.54 826.492 222.811 826.492 225.252C826.492 227.693 826.883 229.964 827.664 232.063C828.47 234.163 829.581 236.006 830.997 237.593C832.437 239.18 834.122 240.413 836.05 241.292C838.003 242.146 840.103 242.574 842.349 242.574Z" fill="white"/>
<path d="M697.167 252.718H684.277V209.029H668.566V197.786H712.878V209.029H697.167V252.718Z" fill="white"/>
<path d="M540.269 253.816C536.07 253.816 532.2 253.108 528.66 251.692C525.145 250.252 522.081 248.25 519.468 245.687C516.856 243.099 514.83 240.071 513.389 236.604C511.949 233.138 511.229 229.354 511.229 225.252C511.229 221.15 511.949 217.366 513.389 213.899C514.83 210.433 516.844 207.417 519.432 204.854C522.044 202.266 525.12 200.264 528.66 198.848C532.2 197.408 536.07 196.688 540.269 196.688C544.468 196.688 548.326 197.408 551.841 198.848C555.381 200.264 558.445 202.266 561.033 204.854C563.621 207.417 565.635 210.433 567.076 213.899C568.516 217.366 569.236 221.15 569.236 225.252C569.236 229.354 568.516 233.138 567.076 236.604C565.635 240.071 563.621 243.099 561.033 245.687C558.445 248.25 555.381 250.252 551.841 251.692C548.326 253.108 544.468 253.816 540.269 253.816ZM540.269 242.574C542.515 242.574 544.59 242.134 546.495 241.255C548.423 240.376 550.096 239.156 551.512 237.593C552.952 236.006 554.063 234.163 554.844 232.063C555.65 229.964 556.053 227.693 556.053 225.252C556.053 222.811 555.65 220.54 554.844 218.44C554.063 216.341 552.964 214.498 551.548 212.911C550.132 211.324 548.46 210.103 546.531 209.249C544.603 208.37 542.515 207.93 540.269 207.93C538.023 207.93 535.923 208.37 533.97 209.249C532.042 210.103 530.357 211.324 528.917 212.911C527.5 214.498 526.39 216.341 525.584 218.44C524.803 220.54 524.412 222.811 524.412 225.252C524.412 227.693 524.803 229.964 525.584 232.063C526.39 234.163 527.5 236.006 528.917 237.593C530.357 239.18 532.042 240.413 533.97 241.292C535.923 242.146 538.023 242.574 540.269 242.574Z" fill="white"/>
<path d="M407.282 252.718H394.392V216.243L382.197 243.489H372.492L360.334 216.353V252.718H347.443V197.786H363.74L377.363 229.061L390.949 197.786H407.282V252.718Z" fill="white"/>
<path d="M1189 177.718V178.718H321V177.718H1189Z" fill="white"/>
</svg>
